    <svg
      width="32"
      height="32"
      viewBox="0 0 62 62"
      xmlns="http://www.w3.org/2000/svg"
      role="img"
    >
      <title>CASEI Logo</title>
      <g stroke="none" strokeWidth="1" fill="none" fillRule="evenodd">
        <g
          transform="translate(-132.000000, -29.000000)"
          fill="white"
          fillRule="nonzero"
          stroke="white"
          strokeWidth="0.5"
        >
          <path d="M163,30 C169.32477,30 175.353469,31.9630309 180.386813,35.5492184 L181.037634,36.0261591 L180.329615,36.9657293 C175.371432,33.2294593 169.34207,31.1764706 163,31.1764706 C155.759577,31.1764706 149.142688,33.8461338 144.079983,38.2548092 C144.292403,38.470694 144.486394,38.7035286 144.661801,38.950487 C145.009077,38.8669444 145.372018,38.8235294 145.745098,38.8235294 C148.235794,38.8235294 150.274551,40.7585079 150.440124,43.2072182 L150.45098,43.5313806 L151.627451,43.5294118 C153.576691,43.5294118 155.156863,45.1095832 155.156863,47.0588235 C155.156863,49.0080638 153.576691,50.5882353 151.627451,50.5882353 L145.114941,50.5892623 C144.301125,51.9952874 142.780633,52.9411765 141.039216,52.9411765 C139.297799,52.9411765 137.777306,51.9952874 136.963491,50.5892623 L135.74809,50.5882061 C134.7296,53.5377675 134.176471,56.7042886 134.176471,60 C134.176471,75.3526814 146.179672,87.9018649 161.313538,88.7750124 C161.793645,87.3976761 162.871458,86.3012537 164.235942,85.7949355 C163.45375,84.5768388 163,83.1257226 163,81.5686275 C163,77.2369824 166.511492,73.7254902 170.843137,73.7254902 C173.175193,73.7254902 175.269528,74.7432935 176.706164,76.3589219 C177.600717,75.9270925 178.605569,75.6862745 179.666667,75.6862745 C181.295111,75.6862745 182.791082,76.2534582 183.967809,77.2010533 C184.786293,76.3432299 185.915472,75.7824591 187.175097,75.6975219 C190.115925,71.1825196 191.823529,65.7906759 191.823529,60 C191.823529,55.9408321 190.984172,52.0019156 189.382877,48.3738852 L189.028108,47.601278 L190.089868,47.0945737 C191.996864,51.0905368 193,55.4746153 193,60 C193,76.5685425 179.568542,90 163,90 C146.431458,90 133,76.5685425 133,60 C133,43.4314575 146.431458,30 163,30 Z M170.843137,74.9019608 C167.161239,74.9019608 164.176471,77.8867291 164.176471,81.5686275 C164.176471,82.7003213 164.458054,83.7879143 164.98509,84.7532488 L165.225885,85.1592505 L166.015782,86.389346 L164.645225,86.8979179 C163.710783,87.244661 162.970793,87.9446016 162.563311,88.8195264 C162.709242,88.8224512 162.854495,88.8235294 163,88.8235294 C166.467676,88.8235294 169.792327,88.2111712 172.871717,87.0886924 C172.82642,86.8899844 172.803922,86.6829138 172.803922,86.4705882 C172.803922,84.9042344 174.028353,83.6238619 175.572282,83.5344046 L175.745098,83.5294118 L176.82372,83.5302637 C176.759306,83.2132252 176.72549,82.8850714 176.72549,82.5490196 C176.72549,79.8417414 178.920173,77.6470588 181.627451,77.6470588 C182.019389,77.6470588 182.400584,77.693057 182.765611,77.78054 C181.87475,77.2002556 180.810123,76.8627451 179.666667,76.8627451 C178.947426,76.8627451 178.249872,76.9958205 177.600929,77.2508454 L177.217611,77.4184053 L176.417431,77.8046782 L175.827,77.1406851 C174.568654,75.7255595 172.773734,74.9019608 170.843137,74.9019608 Z M175.744169,84.705882 L175.523006,84.7196316 C174.653601,84.8285259 173.980392,85.5709389 173.980392,86.4705882 C173.980392,86.5325464 173.983585,86.5937589 173.989816,86.65407 C175.331723,86.1004115 176.62145,85.4487948 177.851346,84.7079444 L175.744169,84.705882 Z M186.206155,77.0990806 L186.142771,77.1215586 C185.48096,77.3823658 184.90336,77.8299609 184.481939,78.4169298 L184.36027,78.5971543 L183.843963,79.4116125 L182.944011,79.0652015 L182.62854,78.960329 C182.307794,78.8699883 181.971942,78.8235294 181.627451,78.8235294 C179.56992,78.8235294 177.901961,80.4914882 177.901961,82.5490196 C177.901961,82.7181413 177.913154,82.8855085 177.93528,83.0504681 L177.976635,83.2960203 L178.217254,84.483804 C181.325373,82.5479404 184.037997,80.0367094 186.206155,77.0990806 Z M141.753083,65.9123894 C142.178362,69.2411754 143.560407,72.3701691 145.80208,74.9489193 C148.04494,77.5290344 150.951072,79.3332381 154.18852,80.2177231 C154.501908,80.3033421 154.686551,80.6268013 154.600932,80.9401893 C154.515313,81.2535774 154.191854,81.4382208 153.878466,81.3526018 C150.418846,80.4074183 147.311025,78.4780013 144.914186,75.7207535 C142.518521,72.9648563 141.040562,69.6187078 140.586098,66.0614813 C140.544927,65.7392272 140.77279,65.4446133 141.095044,65.4034427 C141.417299,65.3622721 141.711912,65.5901354 141.753083,65.9123894 Z M146.466769,66.9774666 C146.724952,68.9972964 147.565539,70.8997942 148.926778,72.4657204 C150.288869,74.0326269 152.055762,75.1300313 154.021722,75.6682233 C154.335066,75.754003 154.519544,76.0775568 154.433764,76.3909009 C154.347984,76.7042451 154.02443,76.8887226 153.711086,76.8029429 C151.523208,76.2039994 149.554838,74.9814591 148.038885,73.2375546 C146.523696,71.4945292 145.587178,69.3749114 145.299793,67.1266345 C145.258602,66.804383 145.486446,66.5097543 145.808697,66.4685627 C146.130948,66.4273712 146.425577,66.6552152 146.466769,66.9774666 Z M156.507947,36.4535813 L161.856995,38.7426328 L163.068761,37.7972162 C163.922107,37.1305095 165.154353,37.2818102 165.82106,38.135156 C166.364849,38.8311744 166.36445,39.7792601 165.882786,40.4669514 L168.029107,41.3848158 L169.780538,40.0182149 C170.633883,39.3515081 171.866129,39.5028089 172.532836,40.3561546 C173.199543,41.2095003 173.048242,42.4417464 172.194896,43.1084531 L172.145046,43.1461809 L176.403126,44.9693486 C177.733284,43.8153265 178.620321,43.0649035 179.064235,42.7180798 C181.64637,40.7006944 186.04517,38.5421031 187.859231,40.8639951 C189.612823,43.1084907 186.543588,46.4582488 184.004591,48.5013689 L183.423796,48.9525491 C182.92367,49.3284031 182.120587,49.9114005 181.014548,50.7015414 L181.816324,55.4972393 L181.852331,55.4694061 C182.705677,54.8026994 183.937923,54.9540001 184.60463,55.8073459 C185.271336,56.6606916 185.120036,57.8929376 184.26669,58.5596444 L182.55283,59.8963691 L182.940722,62.2137954 C183.712779,61.9424631 184.604211,62.1764935 185.13593,62.857062 C185.802636,63.7104077 185.651336,64.9426537 184.79799,65.6093605 L183.658648,66.4980435 L184.661069,72.4879346 L182.23711,74.3817389 L172.38572,56.7764854 L161.019973,64.6893881 L162.284682,69.8208119 L159.472401,72.018007 L156.308547,67.9693483 L156.277763,67.9914979 L153.90953,64.9602982 L153.938422,64.9341032 L150.74605,60.8487868 L153.558331,58.6515917 L158.226963,61.1063769 L168.552834,51.8917302 L154.083988,38.3473856 L156.507947,36.4535813 Z M150.780676,67.726324 C150.895316,68.6154439 151.264091,69.4501938 151.8616,70.1375487 C152.459819,70.8257208 153.235056,71.3070417 154.098557,71.5434297 C154.411901,71.6292094 154.596378,71.9527632 154.510599,72.2661073 C154.424819,72.5794515 154.101265,72.763929 153.787921,72.6781493 C152.702563,72.3810266 151.725832,71.7746047 150.973706,70.9093829 C150.222371,70.0450703 149.757869,68.9936375 149.613865,67.8767676 C149.572321,67.5545614 149.799843,67.2596838 150.122049,67.2181399 C150.444255,67.1765961 150.739133,67.4041178 150.780676,67.726324 Z M179.947779,51.4611662 C178.268746,52.653439 176.073415,54.1987257 173.361785,56.0970262 L173.354803,56.1018412 L182.594815,72.6082921 L183.384371,71.9914234 L179.947779,51.4611662 Z M159.985559,65.4087295 L157.275265,67.2965511 L159.674748,70.3653923 L160.960287,69.361019 L159.985559,65.4087295 Z M180.131695,43.3837573 L179.478923,43.8937584 C178.032289,45.0776404 174.088439,48.5343627 167.6725,54.2423603 L155.514423,65.100931 L156.521211,66.3895604 L170.468831,56.684404 C176.397619,52.5426335 180.279913,49.800301 182.101306,48.4677898 L183.019739,47.7808947 C186.168016,45.3211914 187.850051,42.7631505 186.932159,41.5883027 C186.002862,40.398856 182.99816,41.2560683 180.131695,43.3837573 Z M183.242307,63.3614347 L183.143508,63.4234054 L183.437381,65.1785508 L184.073682,64.682289 C184.372353,64.4489416 184.456023,64.0423979 184.293617,63.715738 L184.208858,63.5813696 C183.975511,63.2826986 183.568967,63.1990288 183.242307,63.3614347 Z M153.682203,60.0454958 L152.396664,61.0498691 L154.817889,64.1480048 L157.29007,61.9424176 L153.682203,60.0454958 Z M171.823529,61.9607843 C172.364985,61.9607843 172.803922,62.3997208 172.803922,62.9411765 C172.803922,63.4826321 172.364985,63.9215686 171.823529,63.9215686 C171.282074,63.9215686 170.843137,63.4826321 170.843137,62.9411765 C170.843137,62.3997208 171.282074,61.9607843 171.823529,61.9607843 Z M145.352941,56.0784314 C146.435852,56.0784314 147.313725,56.9563044 147.313725,58.0392157 C147.313725,58.3964648 147.218185,58.7313991 147.051261,59.0198618 C147.217758,59.3063214 147.313725,59.6419535 147.313725,60 C147.313725,61.0829113 146.435852,61.9607843 145.352941,61.9607843 C144.851104,61.9607843 144.3933,61.7722583 144.046489,61.4621667 C143.582034,61.7771608 143.018343,61.9607843 142.411765,61.9607843 C140.787398,61.9607843 139.470588,60.6439748 139.470588,59.0196078 C139.470588,57.3952409 140.787398,56.0784314 142.411765,56.0784314 C143.018343,56.0784314 143.582034,56.2620549 144.050282,56.5767477 C144.3933,56.2669573 144.851104,56.0784314 145.352941,56.0784314 Z M145.352941,57.254902 C145.206097,57.254902 145.067898,57.2944973 144.949793,57.3668422 L144.83881,57.4498501 L144.156792,58.0658022 L143.39405,57.5531915 C143.105817,57.3594808 142.768098,57.254902 142.411765,57.254902 C141.437145,57.254902 140.647059,58.0449877 140.647059,59.0196078 C140.647059,59.994228 141.437145,60.7843137 142.411765,60.7843137 C142.696493,60.7843137 142.968528,60.7175644 143.210538,60.5928067 L143.386145,60.4884985 L144.146117,59.9730849 L144.830653,60.5851442 C144.973947,60.7132659 145.156364,60.7843137 145.352941,60.7843137 C145.786106,60.7843137 146.137255,60.4331645 146.137255,60 C146.137255,59.9060421 146.121175,59.815695 146.090616,59.7317698 L146.034118,59.6110499 L145.691261,59.0211622 L146.032989,58.4306199 C146.101113,58.3128936 146.137255,58.1800829 146.137255,58.0392157 C146.137255,57.6060512 145.786106,57.254902 145.352941,57.254902 Z M182.711007,56.3117186 L182.576639,56.3964776 L182.036976,56.815944 L182.332351,58.5762608 L183.542382,57.6325729 C183.841053,57.3992255 183.924723,56.9926818 183.762317,56.6660219 L183.677558,56.5316535 C183.444211,56.2329825 183.037667,56.1493127 182.711007,56.3117186 Z M157.117647,52.1568627 C158.200558,52.1568627 159.078431,53.0347358 159.078431,54.1176471 C159.078431,55.2005583 158.200558,56.0784314 157.117647,56.0784314 C156.034736,56.0784314 155.156863,55.2005583 155.156863,54.1176471 C155.156863,53.0347358 156.034736,52.1568627 157.117647,52.1568627 Z M157.117647,53.3333333 C156.684483,53.3333333 156.333333,53.6844825 156.333333,54.1176471 C156.333333,54.5508116 156.684483,54.9019608 157.117647,54.9019608 C157.550812,54.9019608 157.901961,54.5508116 157.901961,54.1176471 C157.901961,53.6844825 157.550812,53.3333333 157.117647,53.3333333 Z M143.210404,39.0450999 L142.934027,39.3081226 C140.019931,42.1346122 137.701008,45.5712535 136.183331,49.4119755 L137.64204,49.4130826 L137.981702,49.9999159 C138.609187,51.0840195 139.76428,51.7647059 141.039216,51.7647059 C142.207907,51.7647059 143.275896,51.1927403 143.929102,50.2623768 L144.096729,49.9999159 L144.436498,49.4128987 L151.627451,49.4117647 C152.926945,49.4117647 153.980392,48.3583171 153.980392,47.0588235 C153.980392,45.8405483 153.05451,44.8385244 151.869648,44.718029 L151.62942,44.7058807 L149.274268,44.7098221 L149.27451,43.5294118 C149.27451,41.5801715 147.694338,40 145.745098,40 C145.559832,40 145.377772,40.0141724 145.200081,40.0421206 L144.936969,40.0943252 L144.163385,40.2804225 L143.702649,39.6317428 C143.553445,39.4216769 143.388692,39.2257045 143.210404,39.0450999 Z M156.683784,37.8066766 L155.891138,38.4259596 L169.434492,51.1051885 L169.921914,50.6708546 C172.145881,48.6992897 173.978377,47.0842798 175.419402,45.8258249 L156.683784,37.8066766 Z M179.497276,46.2958161 L180.333985,46.6537915 L180.437054,47.2738638 C180.129348,46.9453838 179.808877,46.6105991 179.497276,46.2958161 Z M170.639214,40.8605274 L170.504845,40.9452863 L169.263756,41.9125678 L170.909782,42.6176409 L171.470589,42.1813816 C171.76926,41.9480343 171.852929,41.5414905 171.690524,41.2148306 L171.605765,41.0804622 C171.372417,40.7817912 170.965873,40.6981215 170.639214,40.8605274 Z M163.927437,38.6395287 L163.793069,38.7242877 L163.090856,39.2710004 L164.738286,39.9762458 L164.758812,39.960383 C165.057483,39.7270356 165.141153,39.3204919 164.978747,38.993832 L164.893988,38.8594636 C164.660641,38.5607926 164.254097,38.4771228 163.927437,38.6395287 Z"></path>
        </g>
      </g>
    </svg>